<svg xmlns="http://www.w3.org/2000/svg" viewBox="0 0 800 600">
  <defs>
    <pattern id="bricks" width="100" height="50" patternUnits="userSpaceOnUse">
      <rect width="100" height="50" fill="#d08c6d"/>
      <path d="M0 0h100v50H0z" fill="none" stroke="#c37455" stroke-width="6"/>
      <path d="M50 0v50" stroke="#c37455" stroke-width="6"/>
    </pattern>
  </defs>
  <rect width="800" height="600" fill="#c97e5a"/>
  <rect width="800" height="480" fill="url(#bricks)" opacity="0.85"/>
  <rect y="480" width="800" height="120" fill="#68b357"/>
  <g fill="#1d1d1d">
    <rect x="520" y="120" width="40" height="360" rx="6"/>
    <polygon points="470,120 610,120 590,210 490,210"/>
    <rect x="520" y="210" width="40" height="30"/>
    <rect x="560" y="240" width="30" height="60" rx="6"/>
    <rect x="560" y="270" width="160" height="30" rx="6"/>
  </g>
  <g>
    <rect x="160" y="460" width="160" height="100" fill="#9e512d" rx="8"/>
    <rect x="190" y="490" width="100" height="40" fill="#d3682f" rx="6"/>
    <g stroke="#333" stroke-width="4">
      <line x1="190" y1="500" x2="290" y2="500"/>
      <line x1="190" y1="520" x2="290" y2="520"/>
      <line x1="210" y1="490" x2="210" y2="530"/>
      <line x1="230" y1="490" x2="230" y2="530"/>
      <line x1="250" y1="490" x2="250" y2="530"/>
      <line x1="270" y1="490" x2="270" y2="530"/>
    </g>
  </g>
  <g fill="#6f767d">
    <rect x="640" y="470" width="80" height="90" rx="18"/>
    <ellipse cx="680" cy="470" rx="40" ry="15"/>
    <ellipse cx="680" cy="560" rx="40" ry="15"/>
  </g>
  <g fill="#0b0b0b">
    <circle cx="210" cy="210" r="70"/>
    <circle cx="210" cy="210" r="35" fill="#2f2f2f"/>
  </g>
  <g font-family="'Segoe UI',sans-serif" font-size="28" fill="#0b3a76" font-weight="600">
    <text x="150" y="340">Flue</text>
    <text x="565" y="360">Soil</text>
    <text x="650" y="450">Soakaway</text>
    <text x="210" y="450">Gully</text>
  </g>
</svg>
